<svg width="97" height="97" xmlns="http://www.w3.org/2000/svg" xmlns:xlink="http://www.w3.org/1999/xlink" xml:space="preserve" overflow="hidden"><g transform="translate(-164 -148)"><g><g><g><g><path d="M243 169 226 169 226 164C226 160.1 222.9 157 219 157L207 157C203.1 157 200 160.1 200 164L200 169 183 169C180.8 169 179 170.8 179 173L179 177 247 177 247 173C247 170.8 245.2 169 243 169ZM206 164C206 163.4 206.4 163 207 163L219 163C219.6 163 220 163.4 220 164L220 169 206 169 206 164Z" fill="#000000" fill-rule="nonzero" fill-opacity="1"/><path d="M185 233C185 235.2 186.8 237 189 237L237 237C239.2 237 241 235.2 241 233L241 181 185 181 185 233ZM226 187 232 187 232 231 226 231 226 187ZM210 187 216 187 216 231 210 231 210 187ZM194 187 200 187 200 231 194 231 194 187Z" fill="#000000" fill-rule="nonzero" fill-opacity="1"/></g></g></g></g></g></svg>
